<?xml version="1.0" encoding="utf-8"?>
<!-- Generator: Adobe Illustrator 21.1.0, SVG Export Plug-In . SVG Version: 6.00 Build 0)  -->
<svg version="1.1" id="레이어_1" xmlns="http://www.w3.org/2000/svg" xmlns:xlink="http://www.w3.org/1999/xlink" x="0px"
	 y="0px" viewBox="0 0 100 100" style="enable-background:new 0 0 100 100;" xml:space="preserve">
<style type="text/css">
	.st0{fill:#FFFFFF;}
	.st1{fill:#FBBB00;}
	.st2{fill:#518EF8;}
	.st3{fill:#28B446;}
	.st4{fill:#F14336;}
</style>
<g>
	<circle class="st0" cx="50" cy="50" r="50"/>
	<g>
		<path class="st1" d="M38.5,54.3L37,59.7l-5.3,0.1c-1.6-2.9-2.5-6.3-2.5-9.8c0-3.4,0.8-6.7,2.3-9.5h0l4.7,0.9l2.1,4.7
			c-0.4,1.3-0.7,2.6-0.7,4C37.7,51.5,38,53,38.5,54.3z"/>
		<path class="st2" d="M70.3,46.1c0.2,1.3,0.4,2.5,0.4,3.9c0,1.5-0.2,2.9-0.5,4.3c-1,4.7-3.6,8.9-7.3,11.8l0,0L57,65.8l-0.8-5.2
			c2.4-1.4,4.3-3.6,5.3-6.3H50.5v-8.2h11.2H70.3L70.3,46.1z"/>
		<path class="st3" d="M63,66.1L63,66.1c-3.5,2.9-8.1,4.6-13,4.6c-7.9,0-14.7-4.4-18.2-10.9l6.7-5.5c1.7,4.7,6.2,8,11.5,8
			c2.3,0,4.4-0.6,6.2-1.7L63,66.1z"/>
		<path class="st4" d="M63.2,34.1l-6.7,5.5c-1.9-1.2-4.1-1.9-6.5-1.9c-5.4,0-10,3.5-11.6,8.3l-6.7-5.5h0C35.1,33.8,42,29.3,50,29.3
			C55,29.3,59.6,31.1,63.2,34.1z"/>
	</g>
</g>
</svg>
